<svg width="88" height="35" viewBox="0 0 88 35" fill="none" xmlns="http://www.w3.org/2000/svg">
<g clip-path="url(#clip0_140_7302)">
<path d="M62.2402 25.8877V3.53052H66.7312V25.8877H62.2402Z" fill="black"/>
<path d="M9.89924 32.5288H0.271301L0.271301 10.1716H9.51208C14.0032 10.1716 16.62 12.6208 16.62 16.4519C16.62 18.9318 14.9394 20.5344 13.7761 21.068C15.1646 21.6957 16.942 23.1084 16.942 26.0929C16.942 30.2678 14.0032 32.5288 9.89924 32.5288ZM9.15661 14.066H4.76234V19.2157H9.15661C11.0625 19.2157 12.129 18.1793 12.129 16.64C12.129 15.1024 11.0625 14.066 9.15661 14.066ZM9.44697 23.1409H4.76234V28.6361H9.44697C11.4831 28.6361 12.4509 27.3808 12.4509 25.8723C12.4509 24.3655 11.4813 23.1409 9.44697 23.1409Z" fill="black"/>
<path d="M30.6402 23.3598V32.5288H26.1808V23.3598L19.2665 10.1716H24.1447L28.4422 19.1832L32.6746 10.1716H37.5528L30.6402 23.3598Z" fill="black"/>
<path d="M50.2852 32.5288H40.6572V10.1716H49.898C54.3891 10.1716 57.0059 12.6208 57.0059 16.4519C57.0059 18.9318 55.3253 20.5344 54.162 21.068C55.5505 21.6957 57.328 23.1084 57.328 26.0929C57.328 30.2678 54.3891 32.5288 50.2852 32.5288ZM49.5425 14.066H45.1482V19.2157H49.5425C51.4484 19.2157 52.5148 18.1793 52.5148 16.64C52.5148 15.1024 51.4484 14.066 49.5425 14.066ZM49.8329 23.1409H45.1482V28.6361H49.8329C51.869 28.6361 52.8368 27.3808 52.8368 25.8723C52.8368 24.3655 51.869 23.1409 49.8329 23.1409Z" fill="black"/>
<path d="M81.2058 14.066V32.5305H76.7147V14.066H70.705V10.1716H87.2156V14.066H81.2058Z" fill="black"/>
</g>
<defs>
<clipPath id="clip0_140_7302">
<rect width="86.9447" height="34" fill="white" transform="translate(0.271301 0.530518)"/>
</clipPath>
</defs>
</svg>
