<svg width="18" height="19" viewBox="0 0 18 19" fill="none" xmlns="http://www.w3.org/2000/svg">
<path fill-rule="evenodd" clip-rule="evenodd" d="M14 1C14 0.447715 13.5523 0 13 0C12.4477 0 12 0.447715 12 1H6C6 0.447715 5.55228 0 5 0C4.44772 0 4 0.447715 4 1H1C0.447715 1 0 1.44772 0 2V6V16C0 17.6569 1.34315 19 3 19H15C16.6569 19 18 17.6569 18 16V6V2C18 1.44772 17.5523 1 17 1H14ZM5 4C4.44772 4 4 3.55228 4 3H2V5H16V3H14C14 3.55228 13.5523 4 13 4C12.4477 4 12 3.55228 12 3H6C6 3.55228 5.55228 4 5 4ZM5 9C4.44772 9 4 9.44771 4 10C4 10.5523 4.44772 11 5 11H9C9.55228 11 10 10.5523 10 10C10 9.44771 9.55228 9 9 9H5Z" fill="#8D6AE2"/>
</svg>
