<svg width="158" height="26" viewBox="0 0 158 26" fill="none" xmlns="http://www.w3.org/2000/svg">
<path d="M34.9436 1.05794H38.7442V11.079L48.8793 1.05794H53.9468L44.8675 9.81322L54.3691 24.5812H49.3015L41.9114 12.6613L38.6386 15.8259V24.6866H34.838L34.9436 1.05794ZM56.4805 1.05794H60.2812V5.17187C60.5979 4.43347 61.3369 3.37862 62.4982 2.32377C63.6595 1.16343 65.032 0.636003 66.6156 0.636003H67.0379C67.249 0.636003 67.5657 0.636003 67.988 0.741488V4.9609C67.7769 4.9609 67.5657 4.85541 67.3546 4.85541H66.7211C64.7152 4.85541 63.2372 5.48832 62.1815 6.75415C61.1258 8.01997 60.5979 9.49676 60.5979 11.1845V24.6866H56.5861L56.4805 1.05794ZM82.6627 10.3406C83.6129 10.2352 84.1407 9.81322 84.4575 9.18031C84.6686 8.86385 84.6686 8.33643 84.6686 7.70351C84.6686 6.33221 84.1407 5.38284 83.1906 4.74993C82.2404 4.11702 80.868 3.80056 79.0732 3.80056C76.9618 3.80056 75.5893 4.32799 74.6391 5.48832C74.1113 6.12124 73.7946 7.0706 73.689 8.23094H69.9939C70.0995 5.27735 71.0497 3.27313 72.8444 2.21828C74.7447 1.05794 76.7506 0.530518 79.1788 0.530518C81.9237 0.530518 84.1407 1.05794 85.9355 2.1128C87.6247 3.16765 88.4692 4.85541 88.4692 7.0706V20.5727C88.4692 20.9947 88.5748 21.3111 88.6804 21.5221C88.8915 21.7331 89.2083 21.944 89.7361 21.944H90.3696C90.3696 21.944 90.7919 21.8385 91.1086 21.8385V24.7921C90.4751 25.0031 90.0528 25.1086 89.7361 25.1086C89.4194 25.1086 88.9971 25.2141 88.4692 25.2141C87.0968 25.2141 86.1466 24.6866 85.5132 23.7373C85.1965 23.2098 84.9853 22.4714 84.8798 21.5221C84.0352 22.5769 82.8739 23.5263 81.3958 24.2647C79.9178 25.0031 78.2286 25.425 76.4339 25.425C74.2169 25.425 72.4221 24.7921 71.0497 23.4208C69.6772 22.0495 68.9382 20.4672 68.9382 18.463C68.9382 16.2478 69.5716 14.5601 70.9441 13.3997C72.3165 12.2394 74.1113 11.501 76.3283 11.1845L82.6627 10.3406ZM74.3224 20.9947C75.167 21.6276 76.1172 21.944 77.2785 21.944C78.6509 21.944 80.0234 21.6276 81.2903 20.9947C83.5073 19.9398 84.563 18.1466 84.563 15.7204V12.5558C84.0352 12.8723 83.5073 13.0833 82.6627 13.2942C81.8181 13.5052 81.1847 13.6107 80.4457 13.7162L78.1231 14.2436C76.645 14.4546 75.5893 14.771 74.8503 15.193C73.5834 15.9314 73.0555 16.9862 73.0555 18.463C73.0555 19.5179 73.4778 20.3617 74.3224 20.9947ZM93.7479 1.05794H97.5486V11.079L107.684 1.05794H112.751L103.672 9.81322L113.173 24.5812H108.106L100.716 12.6613L97.443 15.8259V24.6866H93.6423L93.7479 1.05794ZM129.326 1.79634C130.91 2.53474 132.071 3.58959 132.916 4.85541C133.655 6.01575 134.182 7.38706 134.499 8.96934C134.71 10.0242 134.816 11.8174 134.816 14.1381L117.713 14.1381C117.819 16.5643 118.346 18.463 119.402 19.9398C120.458 21.4166 122.042 22.155 124.259 22.155C126.264 22.155 127.954 21.5221 129.115 20.1508C129.748 19.3069 130.276 18.463 130.593 17.4082H134.499C134.394 18.252 134.077 19.2014 133.443 20.2563C132.916 21.3111 132.177 22.155 131.543 22.8934C130.382 24.0537 128.904 24.8976 127.109 25.2141C126.159 25.425 125.103 25.5305 123.942 25.5305C120.986 25.5305 118.558 24.4757 116.552 22.366C114.546 20.2563 113.49 17.3027 113.49 13.5052C113.49 9.70773 114.546 6.64866 116.552 4.32799C118.558 2.00731 121.303 0.741488 124.575 0.741488C126.159 0.530518 127.743 0.952459 129.326 1.79634ZM130.804 10.9736C130.593 9.28579 130.276 7.91448 129.643 6.85963C128.587 4.9609 126.792 4.01153 124.259 4.01153C122.464 4.01153 120.986 4.64444 119.719 6.01575C118.452 7.28157 117.819 8.96934 117.819 10.9736L130.804 10.9736ZM138.3 1.05794H142.1V4.43347C143.262 3.06216 144.423 2.1128 145.69 1.47988C146.957 0.846973 148.329 0.530518 149.807 0.530518C153.186 0.530518 155.403 1.69086 156.564 4.01153C157.197 5.27735 157.514 7.0706 157.514 9.49676V24.5812H153.502V9.81322C153.502 8.33643 153.291 7.17609 152.869 6.33221C152.13 4.85541 150.863 4.11702 149.068 4.11702C148.118 4.11702 147.379 4.2225 146.746 4.43347C145.69 4.74993 144.74 5.38284 143.895 6.33221C143.262 7.0706 142.84 7.91448 142.628 8.75837C142.417 9.60225 142.312 10.7626 142.312 12.3449V24.6866H138.405L138.3 1.05794ZM15.6237 1.05794C7.38894 1.05794 0.632248 7.70351 0.632248 16.0368V22.4714C0.632248 23.6318 1.58241 24.5812 2.74371 24.5812C3.90502 24.5812 4.85518 23.6318 4.85518 22.4714V16.0368C4.85518 14.8765 5.80534 13.9271 6.96665 13.9271C8.12795 13.9271 9.07811 14.8765 9.07811 16.0368V22.4714C9.07811 23.6318 10.0283 24.5812 11.1896 24.5812C12.3509 24.5812 13.301 23.6318 13.301 22.4714V16.0368C13.301 14.8765 14.2512 13.9271 15.4125 13.9271C16.5738 13.9271 17.524 14.8765 17.524 16.0368V22.4714C17.524 23.6318 18.4741 24.5812 19.6354 24.5812C20.7968 24.5812 21.7469 23.6318 21.7469 22.4714V16.0368C21.7469 14.8765 22.6971 13.9271 23.8584 13.9271C25.0197 13.9271 25.9698 14.8765 25.9698 16.0368V22.4714C25.9698 23.6318 26.92 24.5812 28.0813 24.5812C29.2426 24.5812 30.1928 23.6318 30.1928 22.4714V16.0368C30.7206 7.70351 23.964 1.05794 15.6237 1.05794Z" fill="#002A1B"/>
</svg>
