<svg width="50" height="50" viewBox="0 0 50 50" fill="none" xmlns="http://www.w3.org/2000/svg">
<path d="M22.3958 27.0834C22.3958 25.6451 23.5618 24.4792 25 24.4792C26.4382 24.4792 27.6042 25.6451 27.6042 27.0834C27.6042 28.5216 26.4382 29.6875 25 29.6875C23.5618 29.6875 22.3958 28.5216 22.3958 27.0834Z" fill="url(#paint0_linear_144_2064)"/>
<path fill-rule="evenodd" clip-rule="evenodd" d="M25 2.60419C18.3841 2.60419 13.0208 7.96744 13.0208 14.5834V16.9036C13.0208 17.0428 13.039 17.1777 13.0732 17.3061C10.0813 18.4055 7.7493 20.8191 6.75983 23.8644C6.25 25.4335 6.25 27.3724 6.25 31.25C6.25 35.1277 6.25 37.0665 6.75983 38.6356C7.79022 41.8068 10.2765 44.2931 13.4477 45.3235C15.0168 45.8334 16.9556 45.8334 20.8333 45.8334H29.1667C33.0443 45.8334 34.9832 45.8334 36.5523 45.3235C39.7235 44.2931 42.2098 41.8068 43.2402 38.6356C43.75 37.0665 43.75 35.1277 43.75 31.25C43.75 27.3724 43.75 25.4335 43.2402 23.8644C42.2507 20.8191 39.9187 18.4055 36.9268 17.3061C36.961 17.1777 36.9792 17.0428 36.9792 16.9036V14.5834C36.9792 7.96744 31.6159 2.60419 25 2.60419ZM29.1667 16.6667C31.1777 16.6667 32.6672 16.6667 33.8542 16.7378V14.5834C33.8542 9.69333 29.89 5.72919 25 5.72919C20.11 5.72919 16.1458 9.69333 16.1458 14.5834V16.7378C17.3328 16.6667 18.8223 16.6667 20.8333 16.6667H29.1667ZM19.2708 27.0834C19.2708 23.9192 21.8359 21.3542 25 21.3542C28.1641 21.3542 30.7292 23.9192 30.7292 27.0834C30.7292 29.7058 28.9672 31.9167 26.5625 32.5969V39.5834C26.5625 40.4463 25.8629 41.1459 25 41.1459C24.1371 41.1459 23.4375 40.4463 23.4375 39.5834V32.5969C21.0328 31.9167 19.2708 29.7058 19.2708 27.0834Z" fill="url(#paint1_linear_144_2064)"/>
<defs>
<linearGradient id="paint0_linear_144_2064" x1="13.0859" y1="66.9976" x2="69.1336" y2="29.138" gradientUnits="userSpaceOnUse">
<stop stop-color="#982DEC"/>
<stop offset="0.572917" stop-color="#DC8DF8"/>
<stop offset="0.895833" stop-color="#A9C4F3"/>
</linearGradient>
<linearGradient id="paint1_linear_144_2064" x1="13.0859" y1="66.9976" x2="69.1336" y2="29.138" gradientUnits="userSpaceOnUse">
<stop stop-color="#982DEC"/>
<stop offset="0.572917" stop-color="#DC8DF8"/>
<stop offset="0.895833" stop-color="#A9C4F3"/>
</linearGradient>
</defs>
</svg>
