<svg width="50" height="50" viewBox="0 0 50 50" fill="none" xmlns="http://www.w3.org/2000/svg">
<path fill-rule="evenodd" clip-rule="evenodd" d="M17.5742 5.7429C19.7063 -1.72778 30.2937 -1.72778 32.4257 5.7429C33.1066 8.12865 35.5577 9.54378 37.9642 8.94054C45.5 7.0516 50.7937 16.2206 45.3899 21.8023C43.6642 23.5848 43.6642 26.4151 45.3899 28.1976C50.7937 33.7793 45.5 42.9483 37.9642 41.0593C35.5577 40.4561 33.1066 41.8712 32.4257 44.257C30.2937 51.7277 19.7063 51.7277 17.5742 44.257C16.8934 41.8712 14.4423 40.4561 12.0358 41.0593C4.49995 42.9483 -0.793755 33.7793 4.61002 28.1976C6.33572 26.4151 6.33572 23.5848 4.61003 21.8023C-0.793753 16.2206 4.49995 7.0516 12.0358 8.94054C14.4423 9.54378 16.8934 8.12865 17.5742 5.7429ZM31.64 18.36C32.2502 18.9702 32.2502 19.9595 31.64 20.5697L19.8549 32.3548C19.2447 32.965 18.2554 32.965 17.6452 32.3548C17.035 31.7446 17.035 30.7553 17.6452 30.1451L29.4303 18.36C30.0405 17.7498 31.0298 17.7498 31.64 18.36ZM18.75 20.8334C17.5995 20.8334 16.6667 19.9006 16.6667 18.75C16.6667 17.5994 17.5995 16.6667 18.75 16.6667C19.9006 16.6667 20.8334 17.5994 20.8334 18.75C20.8334 19.9006 19.9006 20.8334 18.75 20.8334ZM31.25 33.3334C30.0995 33.3334 29.1667 32.4006 29.1667 31.25C29.1667 30.0994 30.0995 29.1667 31.25 29.1667C32.4006 29.1667 33.3334 30.0994 33.3334 31.25C33.3334 32.4006 32.4006 33.3334 31.25 33.3334Z" fill="url(#paint0_linear_879_816)"/>
<defs>
<linearGradient id="paint0_linear_879_816" x1="10.6401" y1="74.2021" x2="76.1778" y2="27.8098" gradientUnits="userSpaceOnUse">
<stop stop-color="#982DEC"/>
<stop offset="0.572917" stop-color="#DC8DF8"/>
<stop offset="0.895833" stop-color="#A9C4F3"/>
</linearGradient>
</defs>
</svg>
