<svg width="50" height="50" viewBox="0 0 50 50" fill="none" xmlns="http://www.w3.org/2000/svg">
<path fill-rule="evenodd" clip-rule="evenodd" d="M10.5439 6.15603C10.7629 5.99689 10.9895 5.85047 11.2249 5.71577C11.3005 5.88418 11.4074 6.04194 11.5457 6.18023C14.2344 8.86877 16.3448 10.9758 18.2051 12.4648C20.0885 13.9722 21.8523 14.9616 23.8844 15.2835C25.126 15.4801 26.3907 15.4801 27.6323 15.2835C29.6076 14.9706 31.3291 14.0271 33.1536 12.5902C34.9548 11.1717 36.9769 9.1724 39.5222 6.62886C39.6039 6.54725 39.6746 6.45886 39.7345 6.36548C40.5042 6.96508 41.1864 7.67022 41.7606 8.46053C43.75 11.1987 43.75 15.1047 43.75 22.9166V27.0833C43.75 34.8952 43.75 38.8012 41.7606 41.5394C41.1181 42.4237 40.3404 43.2014 39.4561 43.8439C36.7179 45.8333 32.8119 45.8333 25 45.8333C17.1881 45.8333 13.2821 45.8333 10.5439 43.8439C9.65958 43.2014 8.8819 42.4237 8.23941 41.5394C6.25 38.8012 6.25 34.8952 6.25 27.0833V22.9166C6.25 15.1047 6.25 11.1987 8.23941 8.46053C8.8819 7.57621 9.65958 6.79853 10.5439 6.15603ZM16.6667 23.4375C15.8037 23.4375 15.1042 24.137 15.1042 25C15.1042 25.8629 15.8037 26.5625 16.6667 26.5625H22.9167C23.7796 26.5625 24.4792 25.8629 24.4792 25C24.4792 24.137 23.7796 23.4375 22.9167 23.4375H16.6667ZM16.6667 31.7708C15.8037 31.7708 15.1042 32.4704 15.1042 33.3333C15.1042 34.1962 15.8037 34.8958 16.6667 34.8958H33.3333C34.1963 34.8958 34.8958 34.1962 34.8958 33.3333C34.8958 32.4704 34.1963 31.7708 33.3333 31.7708H16.6667Z" fill="url(#paint0_linear_144_2079)"/>
<path d="M25 4.16663C30.6249 4.16663 34.2247 4.16663 36.8216 4.90928C34.4875 7.23722 32.7416 8.93693 31.2201 10.1352C29.6169 11.3978 28.388 11.9998 27.1435 12.1969C26.2258 12.3423 25.2909 12.3423 24.3733 12.1969C23.093 11.9942 21.8295 11.363 20.1578 10.025C18.6013 8.77921 16.8104 7.02168 14.4096 4.62428C16.8932 4.16663 20.2134 4.16663 25 4.16663Z" fill="url(#paint1_linear_144_2079)"/>
<defs>
<linearGradient id="paint0_linear_144_2079" x1="13.0859" y1="66.2326" x2="67.8232" y2="27.8716" gradientUnits="userSpaceOnUse">
<stop stop-color="#982DEC"/>
<stop offset="0.572917" stop-color="#DC8DF8"/>
<stop offset="0.895833" stop-color="#A9C4F3"/>
</linearGradient>
<linearGradient id="paint1_linear_144_2079" x1="13.0859" y1="66.2326" x2="67.8232" y2="27.8716" gradientUnits="userSpaceOnUse">
<stop stop-color="#982DEC"/>
<stop offset="0.572917" stop-color="#DC8DF8"/>
<stop offset="0.895833" stop-color="#A9C4F3"/>
</linearGradient>
</defs>
</svg>
