<svg width="50" height="50" viewBox="0 0 50 50" fill="none" xmlns="http://www.w3.org/2000/svg">
<path d="M39.5719 9.67169C38.2943 9.26898 36.8587 9.07345 35.2 8.97111C33.3041 8.85412 31.0001 8.85412 28.1735 8.85413H21.7932C18.4528 8.85411 15.8342 8.8541 13.7421 9.05302C11.6097 9.25577 9.86366 9.67615 8.32445 10.6194C6.71259 11.6071 5.35738 12.9623 4.36963 14.5742C4.33464 14.6313 4.30036 14.6887 4.26679 14.7464C4.42782 11.7398 4.84842 9.74855 5.94699 8.17218C6.52188 7.34725 7.21774 6.62179 8.00902 6.02244C10.4591 4.16663 13.9541 4.16663 20.9441 4.16663H32.129C35.644 4.16663 37.4015 4.16663 38.4935 5.30506C39.3322 6.17941 39.5267 7.46304 39.5719 9.67169Z" fill="url(#paint0_linear_144_2132)"/>
<path d="M5.70169 15.3906C4.16669 17.8955 4.16669 21.3053 4.16669 28.125C4.16669 34.9446 4.16669 38.3544 5.70169 40.8593C6.5606 42.2609 7.73904 43.4394 9.14066 44.2983C11.6455 45.8333 15.0554 45.8333 21.875 45.8333H28.125C34.9447 45.8333 38.3545 45.8333 40.8594 44.2983C42.261 43.4394 43.4394 42.2609 44.2984 40.8593C45.3065 39.2142 45.6525 37.1788 45.7713 34.0436H32.576C28.575 34.0436 25.3316 30.8002 25.3316 26.7992C25.3316 22.7983 28.575 19.5549 32.576 19.5549H45.5785C45.3697 17.8306 44.9897 16.5188 44.2984 15.3906C43.4394 13.989 42.261 12.8105 40.8594 11.9516C40.4604 11.7071 40.0384 11.5016 39.5834 11.3287C37.1817 10.4166 33.8584 10.4166 28.125 10.4166H21.875C15.0554 10.4166 11.6455 10.4166 9.14066 11.9516C7.73904 12.8105 6.5606 13.989 5.70169 15.3906Z" fill="url(#paint1_linear_144_2132)"/>
<path fill-rule="evenodd" clip-rule="evenodd" d="M45.7873 22.6799H32.576C30.3009 22.6799 28.4566 24.5242 28.4566 26.7992C28.4566 29.0743 30.3009 30.9186 32.576 30.9186H45.8285C45.8334 30.0557 45.8334 29.1271 45.8334 28.125C45.8334 26.0057 45.8334 24.2158 45.7873 22.6799ZM32.576 25.2367C31.713 25.2367 31.0135 25.9363 31.0135 26.7992C31.0135 27.6622 31.713 28.3617 32.576 28.3617H38.2578C39.1207 28.3617 39.8203 27.6622 39.8203 26.7992C39.8203 25.9363 39.1207 25.2367 38.2578 25.2367H32.576Z" fill="url(#paint2_linear_144_2132)"/>
<defs>
<linearGradient id="paint0_linear_144_2132" x1="11.7622" y1="66.2326" x2="68.2194" y2="22.27" gradientUnits="userSpaceOnUse">
<stop stop-color="#982DEC"/>
<stop offset="0.572917" stop-color="#DC8DF8"/>
<stop offset="0.895833" stop-color="#A9C4F3"/>
</linearGradient>
<linearGradient id="paint1_linear_144_2132" x1="11.7622" y1="66.2326" x2="68.2194" y2="22.27" gradientUnits="userSpaceOnUse">
<stop stop-color="#982DEC"/>
<stop offset="0.572917" stop-color="#DC8DF8"/>
<stop offset="0.895833" stop-color="#A9C4F3"/>
</linearGradient>
<linearGradient id="paint2_linear_144_2132" x1="11.7622" y1="66.2326" x2="68.2194" y2="22.27" gradientUnits="userSpaceOnUse">
<stop stop-color="#982DEC"/>
<stop offset="0.572917" stop-color="#DC8DF8"/>
<stop offset="0.895833" stop-color="#A9C4F3"/>
</linearGradient>
</defs>
</svg>
