<svg width="47" height="45" viewBox="0 0 47 45" fill="none" xmlns="http://www.w3.org/2000/svg">
<path fill-rule="evenodd" clip-rule="evenodd" d="M23.2773 1.7812C24.0192 0.668405 25.2681 0 26.6055 0H31.8195C33.0554 0 33.9955 1.10973 33.7923 2.3288L31.5138 16H43.8937C45.7869 16 47.2067 17.732 46.8355 19.5884L42.3021 42.255C42.0217 43.6573 40.7904 44.6667 39.3604 44.6667H3C1.34315 44.6667 0 43.3235 0 41.6667V17C0 16.4477 0.447715 16 1 16H13.263C13.5973 16 13.9095 15.8329 14.095 15.5547L23.2773 1.7812ZM10.6667 18H2V41.6667C2 42.219 2.44771 42.6667 3 42.6667H10.6667V18Z" fill="#1A1B23"/>
</svg>
