<svg width="40" height="50" viewBox="0 0 40 50" fill="none" xmlns="http://www.w3.org/2000/svg">
<path fill-rule="evenodd" clip-rule="evenodd" d="M19.4811 0.323043C19.7326 0.215236 20.0174 0.215236 20.2689 0.323043L38.1411 7.98255C38.8765 8.2977 39.3532 9.02078 39.3532 9.82084V34.7168C39.3532 37.2288 38.0072 39.5482 35.8262 40.7945L20.3711 49.626C20.0637 49.8016 19.6863 49.8016 19.3788 49.626L3.92376 40.7945C1.74273 39.5482 0.396729 37.2288 0.396729 34.7168V9.82084C0.396729 9.02078 0.87352 8.29771 1.60889 7.98255L19.4811 0.323043ZM28.5014 20.4276C28.8919 20.037 28.8919 19.4039 28.5014 19.0133C28.1109 18.6228 27.4777 18.6228 27.0872 19.0133L17.2353 28.8652L12.6629 24.2928C12.2724 23.9023 11.6392 23.9023 11.2487 24.2928C10.8581 24.6834 10.8581 25.3165 11.2487 25.7071L16.5282 30.9866C16.9187 31.3771 17.5519 31.3771 17.9424 30.9866L28.5014 20.4276Z" fill="#1A1B23"/>
</svg>
