<svg width="42" height="54" viewBox="0 0 42 54" fill="none" xmlns="http://www.w3.org/2000/svg">
<path fill-rule="evenodd" clip-rule="evenodd" d="M10.6665 12.8333C10.6665 7.12639 15.2929 2.5 20.9998 2.5C26.7068 2.5 31.3332 7.12639 31.3332 12.8333V20.3332H10.6665V12.8333ZM8.6665 20.3332V12.8333C8.6665 6.02182 14.1883 0.5 20.9998 0.5C27.8113 0.5 33.3332 6.02182 33.3332 12.8333V20.3332H40.8332C41.3855 20.3332 41.8332 20.781 41.8332 21.3332V50.4999C41.8332 52.1568 40.49 53.4999 38.8332 53.4999H3.16651C1.50965 53.4999 0.166504 52.1568 0.166504 50.4999V21.3332C0.166504 20.781 0.614219 20.3332 1.1665 20.3332H8.6665ZM26.5831 36.9164C26.5831 36.0879 27.2546 35.4164 28.0831 35.4164H28.1114C28.9398 35.4164 29.6114 36.0879 29.6114 36.9164V36.9447C29.6114 37.7731 28.9398 38.4447 28.1114 38.4447H28.0831C27.2546 38.4447 26.5831 37.7731 26.5831 36.9447V36.9164Z" fill="#1A1B23"/>
</svg>
