<svg width="118" height="45" viewBox="0 0 118 45" fill="none" xmlns="http://www.w3.org/2000/svg">
<path d="M32.2065 36.7291V4.18984C32.2065 1.46917 33.893 0 36.2324 0C38.5717 0 40.2582 1.46917 40.2582 4.18984V15.8888H40.4214C42.0535 12.4063 45.3177 10.3386 49.5067 10.3386C56.9599 10.3386 61.4753 15.9976 61.4753 25.52C61.4753 34.9879 56.9599 40.7013 49.5611 40.7013C45.2632 40.7013 41.9991 38.6336 40.367 35.2056H40.2038V36.7836C40.2038 39.4498 38.5717 40.8646 36.2324 40.8646C33.8386 40.7557 32.2065 39.3954 32.2065 36.7291ZM53.2061 25.4655C53.2061 20.133 50.7035 16.705 46.7321 16.705C42.8151 16.705 40.1494 20.1874 40.1494 25.4655C40.1494 30.7981 42.8151 34.1717 46.7321 34.1717C50.7579 34.2261 53.2061 30.8525 53.2061 25.4655Z" fill="#FCFCFC"/>
<path d="M67.7317 16.8137H66.2084C64.3043 16.8137 63.1074 15.671 63.1074 13.8209C63.1074 11.9709 64.3043 10.8282 66.2084 10.8282H67.7317V7.56338C67.7317 5.00594 69.255 3.37354 71.7575 3.37354C74.26 3.37354 75.7833 4.95153 75.7833 7.56338V10.8282H78.6123C80.5164 10.8282 81.6588 12.0253 81.6588 13.8209C81.6588 15.671 80.462 16.8137 78.6123 16.8137H75.7833V30.9068C75.7833 32.9745 76.4905 33.8451 78.2314 34.0084L78.7755 34.0628C80.734 34.2804 81.822 35.0966 81.822 36.9467C81.822 39.2865 79.5371 40.538 76.1641 40.538H75.8921C70.5606 40.538 67.8405 37.8717 67.8405 32.7024V16.8137H67.7317Z" fill="#FCFCFC"/>
<path d="M84.3246 37.9262C84.3246 36.6202 85.4126 35.532 86.7183 35.532C88.024 35.532 89.112 36.6202 89.112 37.9262C89.112 39.2321 88.024 40.3204 86.7183 40.3204C85.4126 40.3204 84.3246 39.2865 84.3246 37.9262Z" fill="#FCFCFC"/>
<path d="M91.2882 38.0351V25.6288C91.2882 23.942 92.2674 23.1802 93.6819 23.1802C95.0964 23.1802 96.0756 23.942 96.0756 25.6288V31.8863H96.1844L99.775 28.0774C100.428 27.37 101.026 27.0435 101.734 27.0435C102.985 27.0435 103.91 27.9142 103.91 29.1657C103.91 29.9275 103.692 30.3628 102.985 31.0701L100.645 33.1923L103.039 36.5115C103.583 37.2733 103.746 37.7086 103.746 38.3071C103.746 39.6131 102.822 40.5381 101.462 40.5381C100.319 40.5381 99.7206 40.1028 98.9046 38.7969L97.0549 35.8041L96.0212 36.7291V38.0895C96.0212 39.7763 95.042 40.5381 93.6275 40.5381C92.2674 40.4837 91.2882 39.7219 91.2882 38.0351Z" fill="#FCFCFC"/>
<path d="M104.943 42.6058C104.726 42.2249 104.671 41.844 104.671 41.5175C104.671 40.5925 105.379 39.8851 106.521 39.8851C107.065 39.8851 107.555 40.0483 107.99 40.3748C108.806 40.9734 109.731 41.4631 110.71 41.4631C112.288 41.4631 113.158 40.6469 113.158 39.341V37.2732H113.049C112.614 38.6336 111.145 39.5586 109.241 39.5586C106.14 39.5586 104.236 37.2732 104.236 33.4099C104.236 29.3833 106.031 27.2067 109.296 27.2067C111.145 27.2067 112.56 28.2406 113.049 29.7098H113.158V29.4921C113.158 27.8597 114.192 27.0979 115.552 27.0979C116.912 27.0979 117.891 27.8053 117.891 29.4921V39.4498C117.891 43.0411 115.334 45 110.764 45C107.827 45 105.705 43.9117 104.943 42.6058ZM113.267 33.5187C113.267 31.7231 112.505 30.5804 111.254 30.5804C110.003 30.5804 109.241 31.6686 109.241 33.5187C109.241 35.3688 110.003 36.3482 111.254 36.3482C112.505 36.2938 113.267 35.3688 113.267 33.5187Z" fill="#FCFCFC"/>
<path d="M3.53619 40.7557C2.50253 40.7557 1.52328 40.3204 0.816042 39.4498C-0.435226 37.9262 -0.217614 35.6952 1.30567 34.4981L14.1448 23.9419L26.9839 34.4437C28.5071 35.6952 28.7248 37.9262 27.4735 39.3953C26.2222 40.9189 23.9917 41.1366 22.5228 39.8851L14.1448 33.0834L5.76671 39.9395C5.11388 40.4836 4.35223 40.7557 3.53619 40.7557Z" fill="#73F4AD"/>
<path d="M14.1448 30.7436L1.30567 20.2418C-0.217614 18.9903 -0.435226 16.7593 0.816042 15.2901C2.06731 13.7666 4.29783 13.5489 5.76671 14.8004L14.1448 21.6021L22.5228 14.746C24.0461 13.4945 26.2766 13.7122 27.4735 15.2357C28.7248 16.7593 28.5071 18.9903 26.9839 20.1874L14.1448 30.7436Z" fill="#8D6BE2"/>
</svg>
