<svg width="430" height="88" viewBox="0 0 430 88" fill="none" xmlns="http://www.w3.org/2000/svg">
<path d="M11.48 87.08C8.68 87.08 6.36 86.32 4.52 84.8C2.68 83.28 1.6 81.36 1.28 79.04C1.04 76.72 1.84 74.36 3.68 71.96L29.12 38.36V48.32L4.4 15.56C2.56 13.08 1.76 10.68 2 8.36C2.32 6.03999 3.4 4.11999 5.24 2.59999C7.08 1.07999 9.4 0.319994 12.2 0.319994C14.52 0.319994 16.56 0.879994 18.32 1.99999C20.08 3.11999 21.84 4.91999 23.6 7.4L41.48 32.24H34.28L52.28 7.4C54.04 4.84 55.8 3.04 57.56 1.99999C59.32 0.879994 61.36 0.319994 63.68 0.319994C66.56 0.319994 68.92 1.07999 70.76 2.59999C72.6 4.03999 73.64 5.92 73.88 8.24C74.2 10.56 73.4 13 71.48 15.56L46.64 48.32V38.36L72.08 71.96C74 74.36 74.8 76.72 74.48 79.04C74.24 81.36 73.2 83.28 71.36 84.8C69.52 86.32 67.16 87.08 64.28 87.08C62.04 87.08 60.04 86.56 58.28 85.52C56.52 84.4 54.72 82.56 52.88 80L34.4 54.44H41.36L23 80C21.16 82.56 19.36 84.4 17.6 85.52C15.84 86.56 13.8 87.08 11.48 87.08ZM98.9891 86C95.2291 86 92.3491 85.04 90.3491 83.12C88.4291 81.12 87.4691 78.28 87.4691 74.6V12.8C87.4691 9.12 88.4291 6.32 90.3491 4.4C92.3491 2.4 95.2291 1.39999 98.9891 1.39999H128.269C134.349 1.39999 139.509 2.31999 143.749 4.16C148.069 5.92 151.349 8.44 153.589 11.72C155.829 15 156.949 18.84 156.949 23.24C156.949 28.2 155.509 32.44 152.629 35.96C149.829 39.48 145.989 41.88 141.109 43.16V41.24C146.869 42.28 151.309 44.6 154.429 48.2C157.629 51.8 159.229 56.4 159.229 62C159.229 69.44 156.549 75.32 151.189 79.64C145.909 83.88 138.669 86 129.469 86H98.9891ZM108.589 69.8H126.469C130.549 69.8 133.509 69.04 135.349 67.52C137.269 65.92 138.229 63.56 138.229 60.44C138.229 57.32 137.269 55 135.349 53.48C133.509 51.96 130.549 51.2 126.469 51.2H108.589V69.8ZM108.589 35H124.309C128.309 35 131.229 34.28 133.069 32.84C134.989 31.4 135.949 29.2 135.949 26.24C135.949 23.28 134.989 21.12 133.069 19.76C131.229 18.32 128.309 17.6 124.309 17.6H108.589V35ZM201.515 87.08C197.995 87.08 195.275 86.12 193.355 84.2C191.435 82.2 190.475 79.44 190.475 75.92V19.4H171.635C168.675 19.4 166.395 18.64 164.795 17.12C163.275 15.52 162.515 13.28 162.515 10.4C162.515 7.43999 163.275 5.19999 164.795 3.67999C166.395 2.15999 168.675 1.39999 171.635 1.39999H231.395C234.355 1.39999 236.595 2.15999 238.115 3.67999C239.715 5.19999 240.515 7.43999 240.515 10.4C240.515 13.28 239.715 15.52 238.115 17.12C236.595 18.64 234.355 19.4 231.395 19.4H212.555V75.92C212.555 79.44 211.635 82.2 209.795 84.2C207.955 86.12 205.195 87.08 201.515 87.08ZM247.867 86.72C244.267 86.72 241.387 85.64 239.227 83.48C237.147 81.32 236.107 78.48 236.107 74.96C236.107 71.52 237.147 68.76 239.227 66.68C241.387 64.52 244.267 63.44 247.867 63.44C251.627 63.44 254.507 64.52 256.507 66.68C258.587 68.76 259.627 71.52 259.627 74.96C259.627 78.48 258.587 81.32 256.507 83.48C254.507 85.64 251.627 86.72 247.867 86.72ZM282.962 87.08C279.442 87.08 276.722 86.12 274.802 84.2C272.882 82.2 271.922 79.44 271.922 75.92V11.48C271.922 7.79999 272.882 5.03999 274.802 3.19999C276.722 1.27999 279.442 0.319994 282.962 0.319994C286.562 0.319994 289.282 1.27999 291.122 3.19999C293.042 5.03999 294.002 7.79999 294.002 11.48V37.64H294.242L323.402 5.48C324.922 3.88 326.522 2.64 328.202 1.76C329.962 0.799995 331.922 0.319994 334.082 0.319994C337.442 0.319994 339.842 1.2 341.282 2.96C342.802 4.64 343.482 6.64 343.322 8.96C343.242 11.2 342.322 13.28 340.562 15.2L311.522 46.04V37.04L342.002 71.48C344.082 73.8 345.122 76.2 345.122 78.68C345.122 81.08 344.282 83.08 342.602 84.68C341.002 86.28 338.602 87.08 335.402 87.08C332.682 87.08 330.482 86.56 328.802 85.52C327.202 84.4 325.442 82.76 323.522 80.6L294.242 47.84H294.002V75.92C294.002 79.44 293.082 82.2 291.242 84.2C289.402 86.12 286.642 87.08 282.962 87.08ZM397.388 87.32C387.708 87.32 379.468 85.52 372.668 81.92C365.948 78.32 360.828 73.28 357.308 66.8C353.788 60.32 352.028 52.76 352.028 44.12C352.028 37.4 353.068 31.36 355.148 26C357.308 20.56 360.388 15.92 364.388 12.08C368.388 8.16 373.268 5.2 379.028 3.19999C384.868 1.12 391.468 0.0799975 398.828 0.0799975C402.828 0.0799975 406.908 0.479997 411.068 1.28C415.228 2 419.308 3.4 423.308 5.48C425.388 6.44 426.788 7.8 427.508 9.56C428.308 11.24 428.548 13.04 428.228 14.96C427.988 16.8 427.308 18.52 426.188 20.12C425.148 21.64 423.708 22.68 421.868 23.24C420.028 23.72 417.948 23.44 415.628 22.4C413.228 21.28 410.628 20.44 407.828 19.88C405.028 19.24 402.068 18.92 398.948 18.92C393.588 18.92 389.108 19.88 385.508 21.8C381.988 23.72 379.348 26.56 377.588 30.32C375.828 34.08 374.948 38.68 374.948 44.12C374.948 52.28 376.948 58.44 380.948 62.6C384.948 66.76 390.868 68.84 398.708 68.84C401.108 68.84 403.708 68.6 406.508 68.12C409.388 67.64 412.268 66.96 415.148 66.08L411.068 74.36V53.84H402.668C399.948 53.84 397.828 53.16 396.308 51.8C394.868 50.44 394.148 48.52 394.148 46.04C394.148 43.56 394.868 41.68 396.308 40.4C397.828 39.04 399.948 38.36 402.668 38.36H420.428C423.228 38.36 425.348 39.12 426.788 40.64C428.308 42.08 429.068 44.2 429.068 47V73.52C429.068 75.92 428.548 77.96 427.508 79.64C426.548 81.32 424.988 82.52 422.828 83.24C419.068 84.52 414.988 85.52 410.588 86.24C406.188 86.96 401.788 87.32 397.388 87.32Z" fill="#FCFCFC"/>
</svg>
